HIERARCHY
ROOT Hand
{
	OFFSET 0.0 0.0 0.0 
	CHANNELS  6 Xposition Yposition Zposition Zrotation Xrotation Yrotation 
	JOINT Thumb Metacarpal
		{
		OFFSET 0.0 0.0 0.0
		CHANNELS  3 Zrotation Xrotation Yrotation 
		JOINT Thumb Proximal
			{
			OFFSET 0.0 0.0 0.0 
			CHANNELS  3 Zrotation Xrotation Yrotation 
			JOINT Thumb Intermediate
				{
				OFFSET -43.7650299072 1.84748840332 -4.17094421387 
				CHANNELS  3 Zrotation Xrotation Yrotation 
				JOINT Thumb Distal
				{
					OFFSET -29.8978462219 1.28786468506 -2.78747558594 
					CHANNELS  3 Zrotation Xrotation Yrotation 
					End Site
					{
						OFFSET -20.5065879822 0.80199432373 -2.10721588135
					}
				}
			}
		}
	}

	JOINT Index Metacarpal
		{
		OFFSET 0.0 0.0 0.0
		CHANNELS  3 Zrotation Xrotation Yrotation 
		JOINT Index Proximal
			{
			OFFSET -58.3669052124 11.4619598389 -25.8382263184 
			CHANNELS  3 Zrotation Xrotation Yrotation 
			JOINT Index Intermediate
				{
				OFFSET -34.791973114 4.73686218262 -14.188205719 
				CHANNELS  3 Zrotation Xrotation Yrotation 
				JOINT Index Distal
				{
					OFFSET -19.772567749 -0.628234863281 -7.91204833984 
					CHANNELS  3 Zrotation Xrotation Yrotation 
					End Site
					{
						OFFSET -13.8516540527 -2.27088928223 -5.45938491821
					}
				}
			}
		}
	}

	JOINT Middle Metacarpal
		{
		OFFSET 0.0 0.0 0.0
		CHANNELS  3 Zrotation Xrotation Yrotation 
		JOINT Middle Proximal
			{
			OFFSET -51.507106781 10.286529541 -31.9918174744 
			CHANNELS  3 Zrotation Xrotation Yrotation 
			JOINT Middle Intermediate
				{
				OFFSET -36.1753234863 -5.17570495605 -21.6754417419 
				CHANNELS  3 Zrotation Xrotation Yrotation 
				JOINT Middle Distal
				{
					OFFSET -21.0339393616 -7.8678817749 -11.1356220245 
					CHANNELS  3 Zrotation Xrotation Yrotation 
					End Site
					{
						OFFSET -13.3868103027 -7.39340209961 -6.3664855957
					}
				}
			}
		}
	}

	JOINT Ring Metacarpal
		{
		OFFSET 0.0 0.0 0.0
		CHANNELS  3 Zrotation Xrotation Yrotation 
		JOINT Ring Proximal
			{
			OFFSET -41.4766731262 8.28182220459 -35.496471405 
			CHANNELS  3 Zrotation Xrotation Yrotation 
			JOINT Ring Intermediate
				{
				OFFSET -29.7364387512 -7.68258666992 -24.655412674 
				CHANNELS  3 Zrotation Xrotation Yrotation 
				JOINT Ring Distal
				{
					OFFSET -18.10896492 -11.7530136108 -11.411772728 
					CHANNELS  3 Zrotation Xrotation Yrotation 
					End Site
					{
						OFFSET -11.2472915649 -10.798210144 -5.30597543716
					}
				}
			}
		}
	}

	JOINT Pinky Metacarpal
		{
		OFFSET 0.0 0.0 0.0
		CHANNELS  3 Zrotation Xrotation Yrotation 
		JOINT Pinky Proximal
			{
			OFFSET -33.0739479065 8.67585754395 -37.9927864075 
			CHANNELS  3 Zrotation Xrotation Yrotation 
			JOINT Pinky Intermediate
				{
				OFFSET -19.4502868652 -5.58915710449 -23.7055358887 
				CHANNELS  3 Zrotation Xrotation Yrotation 
				JOINT Pinky Distal
				{
					OFFSET -12.011631012 -8.61045837402 -8.87876605988 
					CHANNELS  3 Zrotation Xrotation Yrotation 
					End Site
					{
						OFFSET -10.2741765976 -10.352104187 -4.25884056091
					}
				}
			}
		}
	}
}

MOTION
Frames: 6
Frame Time: 61.6
14.7652158737 96.3266906738 7.6520781517 -56.8477778237 -12.8989882755 24.4218914927 25.8699005026 -90.0000014842 26.5650714277 71.7039152621 -144.091223549 25.7016222082 67.7098339009 -89.7365000541 84.7785980196 44.8927212765 -92.3931869412 26.1325645861 12.8650756838 -48.2230820491 131.054306179 68.7800121976 -109.298810411 73.5525421971 12.0609127892 -46.0102688869 143.809636372 66.8099715178 -86.269189176 78.6298960742 8.69933973294 -11.2552233939 177.256291287 56.7994931839 -105.547439425 79.9422746058 5.70220637288 2.90227171327 -165.139325645 57.1694675725 -82.6968153282 93.2540678677 11.0480573499 39.2775046492 -128.62437421 51.798983344 -82.8468269435 96.4078211786 5.66588688136 76.3100980941 -89.0978866087 53.298123866 -62.4536171058 112.92577156 16.2661705476 67.7960153485 -91.5739536569 39.6644939129 -58.808118658 121.540507946 6.84127984075 101.665760124 -54.9706011626 44.3121034793 -29.9442721714 147.52872329 
14.5534515381 96.4236526489 7.33557891846 -57.1091111097 -12.1621286762 23.2904023416 25.8698970259 -89.9999999192 26.5650728311 71.8667883444 -142.865465473 26.453940558 67.5787367211 -88.6881042464 85.2370719223 44.7924579867 -91.6546466232 26.5955022812 12.8650703063 -48.2230743436 131.054313809 68.9996477916 -108.344013548 74.0767545357 11.9742434349 -47.064032339 142.677277259 67.0802466957 -85.641199525 79.1925530363 8.69933440924 -11.2552075866 177.256302866 56.9148145179 -104.659169895 80.3069322898 5.33527150421 2.31230410944 -165.731854687 57.2809138833 -82.3100450489 93.590443977 11.0480629303 39.2775098294 -128.624358866 52.2663644653 -81.8636492635 96.6423506096 5.50384733937 80.3387555891 -85.0375882594 53.6774163067 -62.017355151 113.068616446 16.2661653139 67.7960116327 -91.5739501549 40.1667230793 -58.5331231163 121.076098145 7.13668241979 105.609778973 -51.0588075057 44.4400972583 -30.2273140026 146.824380709 
14.4413156509 96.4676971436 7.25375556946 -57.1801109269 -11.8698358499 22.8047434425 25.8698989028 -89.9999999996 26.565071723 71.8304724646 -142.346330402 26.7806712461 67.5072273106 -88.1054085496 85.395303891 44.5197064797 -91.4656302179 26.6712439568 12.8650787776 -48.2230799162 131.054314644 69.0336107429 -107.947400722 74.2984761675 11.9846346302 -47.3437503771 142.356481357 67.1171488612 -85.3170856568 79.4174521868 8.69934800996 -11.255204537 177.256297408 56.9286459965 -104.303889957 80.4614975048 5.21902742325 1.95828695547 -166.085539265 57.2949764587 -82.1118920942 93.7391552366 11.0480585696 39.2775030915 -128.624367663 52.3927645415 -81.4393459873 96.7743918656 5.43336479906 81.1919308121 -84.1619705098 53.7864692989 -61.7074941381 113.179505037 16.2661759086 67.7960133208 -91.5739543205 40.4041395665 -58.2726119741 121.022343791 7.17364299225 106.765488302 -49.8982727459 44.581496114 -30.1405485347 146.690846647 
14.0835676193 96.4806137085 7.02832984924 -57.3463030918 -10.8622830441 21.0034637355 25.8698923198 -89.9999993893 26.5650703171 71.4190524875 -140.514712035 27.9860214396 67.1908739833 -85.5567088718 85.9265823785 42.6373368712 -91.0364765312 26.6359641631 12.8650584768 -48.2230732544 131.054314849 68.9530992683 -106.299152569 75.2103371725 12.3114343556 -47.4600747272 142.02544148 66.9166325752 -83.5135878725 80.2522082431 8.69933358845 -11.2552069687 177.256305126 56.9191959528 -103.400744999 80.8610699887 5.21725833833 0.232338542053 -167.806973432 57.2838438021 -81.1364898869 94.1408344935 11.0480486264 39.2775138378 -128.624360627 52.8856584435 -79.643720439 97.4799364136 5.09649799005 82.2458177988 -83.0017638481 54.2790661849 -60.0320891045 113.848020814 16.2661712843 67.7960134668 -91.5739506187 41.2456112127 -56.8869835454 121.266209534 6.9757577332 109.053789939 -47.525067307 45.2990931229 -29.0907110106 146.756272411 
13.9853620529 96.4966125488 6.9561753273 -57.4017164171 -10.4993191034 20.299568337 25.8698983004 -90.0000001136 26.5650705221 71.1007510376 -139.676591131 28.5205864214 67.0163264342 -84.2150006471 86.1150279323 41.2284756611 -90.8283959893 26.5944868373 12.865073554 -48.2230762548 131.054315277 68.9228044947 -105.623974221 75.6158813629 12.5265817666 -47.1895639099 142.198963697 66.8038413823 -82.6236515157 80.5921086229 8.69934415361 -11.2552126795 177.256291361 56.9055908866 -103.048902353 81.058110576 5.32734826888 -0.700476979455 -168.737244166 57.2755805025 -80.5830157298 94.3419280324 11.0480643965 39.2775038645 -128.624361187 53.1689365893 -78.8898495967 97.8206188805 4.93002029447 81.3397760369 -83.8646148177 54.5994379547 -59.1492457404 114.191569441 16.2661716052 67.7960166309 -91.573955158 41.8173967796 -56.2303075902 121.45816466 6.79329225812 110.163914799 -46.38832929 45.8958067801 -28.5370437876 146.904008149 
13.9077882767 96.5139007568 6.89613056183 -57.4660089886 -10.0654219398 19.3494907199 25.8698983937 -89.99999985 26.5650701452 70.3043702264 -138.246077204 29.4035374567 66.6058182889 -80.8940897601 86.6088287606 37.1886202553 -90.8169574012 25.8482364537 12.8650709812 -48.2230806792 131.054308316 68.9477858145 -104.796879573 76.2234307304 13.0678101041 -45.8794713979 143.369510387 66.6039501817 -80.9903213944 80.9978767206 8.69933541424 -11.2552118973 177.256302561 56.924747394 -102.689654146 81.3587700401 5.71332320156 -2.14878586075 -170.182614354 57.3131413375 -79.5719101571 94.649434414 11.0480500475 39.2775030948 -128.624361134 53.9546681589 -77.6961467557 98.4324522102 4.62148518534 75.7260799524 -89.4222949501 55.544648946 -57.2625438457 114.831503416 16.2661666109 67.7960115767 -91.5739550794 43.5890626486 -54.5606156982 122.258190831 5.93996215402 111.750421727 -44.7607192901 48.0614085668 -26.8141361722 147.749534087 
